<svg width="20" height="20" viewBox="0 0 20 20" fill="none" xmlns="http://www.w3.org/2000/svg">
<g clip-path="url(#clip0_377_582)">
<path d="M11.6912 16.4573C11.7165 16.5205 11.7605 16.5743 11.8174 16.6117C11.8742 16.6491 11.9411 16.6682 12.0091 16.6664C12.0771 16.6647 12.1429 16.6422 12.1977 16.6019C12.2526 16.5617 12.2938 16.5057 12.3159 16.4413L16.6492 3.77466C16.6705 3.71559 16.6746 3.65167 16.6609 3.59037C16.6473 3.52907 16.6164 3.47293 16.572 3.42852C16.5276 3.3841 16.4715 3.35326 16.4102 3.33959C16.3489 3.32592 16.2849 3.32999 16.2259 3.35133L3.55919 7.68466C3.49485 7.70673 3.4388 7.74794 3.39857 7.80278C3.35833 7.85761 3.33584 7.92344 3.33409 7.99144C3.33235 8.05943 3.35145 8.12632 3.38883 8.18315C3.4262 8.23997 3.48007 8.284 3.54319 8.30933L8.82986 10.4293C8.99698 10.4962 9.14882 10.5963 9.27623 10.7235C9.40364 10.8507 9.50398 11.0023 9.57119 11.1693L11.6912 16.4573Z" stroke="#FCFCFC" stroke-width="1.33333" stroke-linecap="round" stroke-linejoin="round"/>
<path d="M16.5687 3.4314L9.27539 10.7241" stroke="#FCFCFC" stroke-width="1.33333" stroke-linecap="round" stroke-linejoin="round"/>
</g>
<defs>
<clipPath id="clip0_377_582">
<rect width="16" height="16" fill="white" transform="translate(2 2)"/>
</clipPath>
</defs>
</svg>
