<svg width="653" height="236" viewBox="0 0 653 236" fill="none" xmlns="http://www.w3.org/2000/svg">
<path d="M55.8232 60.5447H175.882V92.9469H55.8232V60.5447ZM171.107 22.8559H213.741V132H171.107V22.8559ZM19.3281 22.8559H61.9625V132H19.3281V22.8559ZM230.841 132V22.8559H362.667C373.013 22.8559 382.279 24.0497 390.465 26.4372C398.764 28.711 405.301 32.5766 410.076 38.0338C414.965 43.491 417.41 50.9378 417.41 60.3742C417.41 66.6272 416.273 71.8002 413.999 75.8931C411.725 79.986 408.598 83.1694 404.619 85.4432C400.64 87.7171 396.092 89.3656 390.976 90.3888C385.86 91.412 380.517 92.0373 374.946 92.2647L362.496 89.8772C376.026 89.9909 386.429 90.5594 393.705 91.5826C401.095 92.6058 406.211 94.4817 409.053 97.2103C412.009 99.8252 413.487 103.634 413.487 108.636V132H370.853V113.752C370.853 110.342 370.171 107.784 368.806 106.078C367.556 104.259 364.713 103.009 360.279 102.326C355.959 101.644 349.251 101.303 340.156 101.303H273.476V132H230.841ZM273.476 72.8234H362.667C366.078 72.8234 368.92 72.255 371.194 71.1181C373.581 69.9811 374.775 67.821 374.775 64.6376C374.775 61.6816 373.581 59.692 371.194 58.6688C368.92 57.5319 366.078 56.9634 362.667 56.9634H273.476V72.8234ZM555.276 22.8559H609.848L533.106 87.6602L531.401 89.0245L481.945 132H427.373L507.525 64.8082L508.719 63.7849L555.276 22.8559ZM483.65 22.8559L531.571 64.9787L532.594 66.0019L611.553 132H556.981L505.479 87.4897L504.797 86.8075L429.078 22.8559H483.65Z" fill="url(#paint0_linear_995_3235)"/>
<path d="M17.7639 199.765H28.0712V201.866H17.7639V199.765ZM27.7247 193.81H30.1716V207.842H27.7247V193.81ZM15.5768 193.81H18.0454V207.842H15.5768V193.81Z" fill="#009785"/>
<path d="M51.8056 201.93V193.81H54.2525V202.125C54.2525 203.006 54.1298 203.778 53.8844 204.442C53.6534 205.106 53.3214 205.669 52.8883 206.131C52.4553 206.593 51.9428 206.976 51.3509 207.279C50.759 207.568 50.1094 207.777 49.402 207.907C48.7091 208.037 47.9729 208.102 47.1933 208.102C46.3849 208.102 45.6198 208.037 44.898 207.907C44.1762 207.777 43.5194 207.568 42.9275 207.279C42.3356 206.976 41.8231 206.593 41.3901 206.131C40.9714 205.669 40.6394 205.106 40.394 204.442C40.163 203.778 40.0475 203.006 40.0475 202.125V193.81H42.5161V201.93C42.5161 203.028 42.7182 203.865 43.1224 204.442C43.541 205.005 44.104 205.395 44.8114 205.612C45.5188 205.828 46.3127 205.936 47.1933 205.936C48.0451 205.936 48.8174 205.828 49.5103 205.612C50.2032 205.395 50.759 205.005 51.1777 204.442C51.5963 203.865 51.8056 203.028 51.8056 201.93ZM73.9907 206.564H72.8863L80.3353 193.81H82.7822V207.842H80.3353V197.34L80.8983 197.491L74.7919 207.842H72.1068L66.0003 197.535L66.585 197.362V207.842H64.1164V193.81H66.585L73.9907 206.564ZM94.5961 204.551V202.45H102.955V204.551H94.5961ZM91.348 207.842L97.4761 193.81H100.118L106.289 207.842H103.626L98.2557 195.174H99.3384L93.9898 207.842H91.348ZM127.847 205.287L127.111 205.568V193.81H129.558V207.842H127.111L116.587 196.43L117.345 196.149V207.842H114.876V193.81H117.345L127.847 205.287ZM187.78 201.866V205.72H197.632V207.842H185.311V193.81H197.611V195.932H187.78V199.83H195.835V201.866H187.78ZM209.586 193.81V205.72H218.334V207.842H207.117V193.81H209.586ZM229.498 204.551V202.45H237.856V204.551H229.498ZM226.25 207.842L232.378 193.81H235.02L241.191 207.842H238.528L233.158 195.174H234.24L228.892 207.842H226.25ZM246.893 193.81H260.362V195.932H246.893V193.81ZM252.415 195.672H254.862V207.842H252.415V195.672ZM269.353 193.81H271.821V207.842H269.353V193.81ZM289.678 208.102C288.032 208.102 286.595 207.806 285.368 207.214C284.156 206.622 283.21 205.785 282.532 204.702C281.868 203.62 281.536 202.327 281.536 200.826C281.536 199.325 281.868 198.033 282.532 196.95C283.21 195.853 284.156 195.016 285.368 194.438C286.595 193.846 288.032 193.55 289.678 193.55C291.338 193.55 292.774 193.846 293.987 194.438C295.199 195.016 296.138 195.853 296.802 196.95C297.48 198.033 297.819 199.325 297.819 200.826C297.819 202.327 297.48 203.62 296.802 204.702C296.138 205.785 295.199 206.622 293.987 207.214C292.774 207.806 291.338 208.102 289.678 208.102ZM289.678 205.936C290.775 205.936 291.742 205.749 292.579 205.373C293.416 204.998 294.073 204.435 294.55 203.684C295.041 202.919 295.286 201.967 295.286 200.826C295.286 199.7 295.041 198.762 294.55 198.011C294.073 197.246 293.416 196.676 292.579 196.3C291.742 195.911 290.775 195.716 289.678 195.716C288.595 195.716 287.628 195.911 286.776 196.3C285.924 196.676 285.253 197.246 284.762 198.011C284.271 198.762 284.026 199.7 284.026 200.826C284.026 201.967 284.271 202.919 284.762 203.684C285.253 204.435 285.924 204.998 286.776 205.373C287.628 205.749 288.595 205.936 289.678 205.936ZM320.111 205.287L319.375 205.568V193.81H321.822V207.842H319.375L308.851 196.43L309.609 196.149V207.842H307.14V193.81H309.609L320.111 205.287ZM330.764 203.186H333.168C333.226 203.721 333.435 204.204 333.796 204.637C334.171 205.056 334.662 205.388 335.269 205.633C335.889 205.864 336.597 205.98 337.391 205.98C338.098 205.98 338.683 205.893 339.145 205.72C339.607 205.547 339.946 205.309 340.162 205.005C340.393 204.688 340.509 204.32 340.509 203.901C340.509 203.482 340.372 203.158 340.097 202.927C339.838 202.681 339.433 202.479 338.885 202.32C338.336 202.147 337.636 201.981 336.784 201.822C336.077 201.692 335.391 201.519 334.727 201.303C334.063 201.086 333.464 200.812 332.93 200.48C332.41 200.148 331.999 199.743 331.696 199.267C331.392 198.776 331.241 198.199 331.241 197.535C331.241 196.784 331.45 196.106 331.869 195.499C332.302 194.893 332.937 194.417 333.774 194.07C334.612 193.724 335.629 193.55 336.828 193.55C338.661 193.55 340.061 193.976 341.028 194.828C341.996 195.665 342.465 196.806 342.436 198.249H340.076C340.032 197.34 339.7 196.683 339.08 196.279C338.459 195.875 337.672 195.672 336.719 195.672C335.868 195.672 335.153 195.824 334.576 196.127C333.998 196.43 333.709 196.921 333.709 197.6C333.709 197.888 333.774 198.141 333.904 198.358C334.049 198.56 334.28 198.747 334.597 198.921C334.915 199.079 335.348 199.238 335.896 199.397C336.459 199.541 337.145 199.7 337.954 199.873C338.647 199.989 339.296 200.148 339.902 200.35C340.509 200.552 341.036 200.804 341.483 201.108C341.945 201.411 342.306 201.801 342.566 202.277C342.826 202.753 342.956 203.338 342.956 204.031C342.956 204.825 342.754 205.532 342.349 206.153C341.945 206.759 341.324 207.243 340.487 207.604C339.664 207.95 338.596 208.124 337.282 208.124C336.286 208.124 335.413 208.008 334.662 207.777C333.926 207.532 333.298 207.221 332.778 206.846C332.259 206.456 331.84 206.038 331.522 205.59C331.219 205.143 331.003 204.709 330.873 204.291C330.757 203.858 330.721 203.49 330.764 203.186ZM354.188 199.765H364.495V201.866H354.188V199.765ZM364.148 193.81H366.595V207.842H364.148V193.81ZM352 193.81H354.469V207.842H352V193.81ZM376.883 193.81H379.351V207.842H376.883V193.81ZM391.707 203.143V201.086H397.381C398.175 201.086 398.81 200.855 399.286 200.393C399.777 199.931 400.022 199.31 400.022 198.531C400.022 197.722 399.777 197.094 399.286 196.647C398.81 196.185 398.175 195.954 397.381 195.954H392.054V207.842H389.585V193.81H397.207C397.944 193.81 398.629 193.911 399.265 194.113C399.9 194.301 400.456 194.59 400.932 194.98C401.423 195.369 401.798 195.86 402.058 196.452C402.332 197.029 402.469 197.722 402.469 198.531C402.469 199.325 402.332 200.018 402.058 200.61C401.798 201.187 401.423 201.663 400.932 202.039C400.456 202.414 399.9 202.696 399.265 202.883C398.629 203.057 397.944 203.143 397.207 203.143H391.707ZM437.11 201.866V205.72H446.962V207.842H434.641V193.81H446.94V195.932H437.11V199.83H445.165V201.866H437.11ZM492.388 202.927C492.243 204.009 491.861 204.94 491.24 205.72C490.619 206.485 489.789 207.077 488.75 207.496C487.725 207.9 486.527 208.102 485.155 208.102C483.971 208.102 482.881 207.943 481.885 207.626C480.904 207.308 480.045 206.846 479.309 206.24C478.587 205.619 478.024 204.861 477.62 203.966C477.23 203.057 477.035 202.017 477.035 200.848C477.035 199.664 477.23 198.625 477.62 197.73C478.024 196.835 478.587 196.077 479.309 195.456C480.045 194.821 480.904 194.344 481.885 194.027C482.881 193.709 483.971 193.55 485.155 193.55C486.541 193.55 487.746 193.76 488.771 194.178C489.811 194.597 490.641 195.196 491.262 195.976C491.882 196.755 492.258 197.694 492.388 198.791H490.006C489.804 198.141 489.486 197.592 489.053 197.145C488.62 196.683 488.071 196.329 487.407 196.084C486.758 195.839 486.007 195.716 485.155 195.716C484.087 195.716 483.127 195.918 482.275 196.322C481.423 196.712 480.752 197.289 480.261 198.054C479.785 198.805 479.547 199.736 479.547 200.848C479.547 201.945 479.785 202.876 480.261 203.641C480.752 204.392 481.423 204.962 482.275 205.352C483.127 205.742 484.087 205.936 485.155 205.936C486.007 205.936 486.758 205.821 487.407 205.59C488.057 205.345 488.598 204.998 489.031 204.551C489.464 204.089 489.782 203.547 489.984 202.927H492.388ZM503.896 199.765H514.203V201.866H503.896V199.765ZM513.857 193.81H516.304V207.842H513.857V193.81ZM501.709 193.81H504.178V207.842H501.709V193.81ZM528.129 204.551V202.45H536.487V204.551H528.129ZM524.881 207.842L531.009 193.81H533.65L539.822 207.842H537.158L531.788 195.174H532.871L527.522 207.842H524.881ZM561.38 205.287L560.643 205.568V193.81H563.09V207.842H560.643L550.12 196.43L550.878 196.149V207.842H548.409V193.81H550.878L561.38 205.287ZM580.262 208.102C579.063 208.102 577.981 207.943 577.014 207.626C576.046 207.308 575.216 206.846 574.523 206.24C573.845 205.619 573.318 204.861 572.943 203.966C572.582 203.071 572.401 202.06 572.401 200.934C572.401 199.794 572.596 198.769 572.986 197.86C573.376 196.95 573.931 196.178 574.653 195.543C575.375 194.893 576.234 194.402 577.23 194.07C578.226 193.724 579.323 193.55 580.522 193.55C581.922 193.55 583.134 193.767 584.159 194.2C585.184 194.633 586 195.239 586.606 196.019C587.213 196.784 587.559 197.694 587.646 198.747H585.372C585.184 198.127 584.874 197.592 584.441 197.145C584.022 196.697 583.481 196.351 582.817 196.106C582.167 195.846 581.402 195.716 580.522 195.716C579.367 195.716 578.363 195.94 577.512 196.387C576.674 196.82 576.032 197.434 575.584 198.228C575.137 199.007 574.913 199.909 574.913 200.934C574.913 201.959 575.108 202.847 575.498 203.598C575.902 204.334 576.508 204.912 577.317 205.33C578.125 205.734 579.128 205.936 580.327 205.936C581.251 205.936 582.059 205.799 582.752 205.525C583.459 205.236 584.044 204.839 584.506 204.334C584.968 203.829 585.293 203.244 585.48 202.58L586.585 202.32C586.383 204.183 585.718 205.612 584.592 206.608C583.481 207.604 582.037 208.102 580.262 208.102ZM586 207.842C586 207.38 586.022 206.86 586.065 206.283C586.108 205.691 586.159 205.092 586.217 204.486C586.289 203.865 586.354 203.309 586.411 202.818H580.608V201.043H588.187V207.842H586ZM600.178 201.866V205.72H610.031V207.842H597.71V193.81H610.009V195.932H600.178V199.83H608.234V201.866H600.178Z" fill="#4A5578"/>
<path d="M162.405 207.842V193.81H170.699C171.738 193.81 172.64 193.962 173.406 194.265C174.171 194.554 174.763 195.008 175.181 195.629C175.6 196.235 175.809 197.015 175.809 197.968C175.809 198.603 175.701 199.152 175.484 199.614C175.268 200.061 174.965 200.429 174.575 200.718C174.185 201.007 173.73 201.23 173.211 201.389C172.705 201.548 172.164 201.649 171.587 201.692L171.37 201.541C172.294 201.555 173.059 201.642 173.665 201.801C174.272 201.945 174.734 202.226 175.051 202.645C175.369 203.049 175.528 203.648 175.528 204.442V207.842H173.081V204.572C173.081 204.024 172.98 203.598 172.778 203.295C172.59 202.977 172.258 202.761 171.781 202.645C171.32 202.515 170.655 202.45 169.789 202.45H164.874V207.842H162.405ZM164.874 200.436H170.699C171.565 200.436 172.222 200.22 172.669 199.787C173.117 199.354 173.341 198.783 173.341 198.076C173.341 197.398 173.117 196.878 172.669 196.517C172.222 196.142 171.565 195.954 170.699 195.954H164.874V200.436Z" fill="#019968"/>
<path d="M466.495 193.81H469.418L463.312 201.454L463.247 201.519L458.569 207.842H455.624L461.882 199.787L461.947 199.743L466.495 193.81ZM458.786 193.81L463.225 199.765L463.247 199.808L469.461 207.842H466.343L461.774 201.454L461.731 201.411L455.841 193.81H458.786Z" fill="#0DA4DD"/>
<path d="M625.391 20.3094V21.9753H621.114V36H619.065V21.9753H614.765V20.3094H625.391ZM643.828 20.422V36H641.78V24.384L636.602 36H635.161L629.961 24.3615V36H627.913V20.422H630.119L635.882 33.2986L641.645 20.422H643.828Z" fill="#112521" fill-opacity="0.55"/>
<defs>
<linearGradient id="paint0_linear_995_3235" x1="7" y1="77" x2="617" y2="77" gradientUnits="userSpaceOnUse">
<stop stop-color="#009689"/>
<stop offset="0.418269" stop-color="#009966"/>
<stop offset="0.959431" stop-color="#0EA5E9"/>
</linearGradient>
</defs>
</svg>
