<svg width="24" height="24" viewBox="0 0 24 24" fill="none" xmlns="http://www.w3.org/2000/svg">
<path d="M19 14C20.49 12.54 22 10.79 22 8.5C22 7.04131 21.4205 5.64236 20.3891 4.61091C19.3576 3.57946 17.9587 3 16.5 3C14.74 3 13.5 3.5 12 5C10.5 3.5 9.26 3 7.5 3C6.04131 3 4.64236 3.57946 3.61091 4.61091C2.57946 5.64236 2 7.04131 2 8.5C2 10.8 3.5 12.55 5 14L12 21L19 14Z" stroke="#31C496" stroke-width="2" stroke-linecap="round" stroke-linejoin="round"/>
<path d="M11.9996 5L9.03961 7.96C8.83644 8.16171 8.67518 8.40162 8.56514 8.66593C8.45509 8.93023 8.39844 9.2137 8.39844 9.5C8.39844 9.7863 8.45509 10.0698 8.56514 10.3341C8.67518 10.5984 8.83644 10.8383 9.03961 11.04C9.85961 11.86 11.1696 11.89 12.0396 11.11L14.1096 9.21C14.6285 8.73919 15.304 8.47839 16.0046 8.47839C16.7052 8.47839 17.3808 8.73919 17.8996 9.21L20.8596 11.87" stroke="#31C496" stroke-width="2" stroke-linecap="round" stroke-linejoin="round"/>
<path d="M18 15L16 13" stroke="#31C496" stroke-width="2" stroke-linecap="round" stroke-linejoin="round"/>
<path d="M15 18L13 16" stroke="#31C496" stroke-width="2" stroke-linecap="round" stroke-linejoin="round"/>
</svg>
