<svg width="150" height="38" viewBox="0 0 150 38" fill="none" xmlns="http://www.w3.org/2000/svg">
<g clip-path="url(#clip0_377_897)">
<path d="M56.2097 27.147C55.0659 27.147 53.9679 26.926 52.9155 26.4835C51.909 26.0568 51.0089 25.4466 50.2161 24.6535C49.423 23.8606 48.8128 22.9607 48.386 21.9541C47.9435 20.9018 47.7227 19.8037 47.7227 18.66C47.7227 17.5161 47.9435 16.4181 48.386 15.3657C48.8128 14.3592 49.423 13.4596 50.2161 12.6663C51.0089 11.8736 51.909 11.2634 52.9155 10.8363C53.9679 10.3942 55.0659 10.1729 56.2097 10.1729C57.3535 10.1729 58.4516 10.3942 59.5038 10.8363C60.5103 11.2634 61.41 11.8736 62.2032 12.6663L60.762 14.1076C60.1519 13.4978 59.4581 13.0324 58.6803 12.7122C57.9025 12.3919 57.079 12.2317 56.2097 12.2317C55.3403 12.2317 54.5168 12.3919 53.739 12.7122C52.9612 13.0324 52.2671 13.4978 51.6573 14.1076C51.0472 14.7177 50.5822 15.4115 50.2618 16.1893C49.9416 16.9671 49.7814 17.7907 49.7814 18.66C49.7814 19.5292 49.9416 20.3528 50.2618 21.1305C50.5822 21.9083 51.0472 22.6025 51.6573 23.2122C52.2671 23.8225 52.9612 24.2874 53.739 24.6077C54.5168 24.928 55.3403 25.0881 56.2097 25.0881C57.079 25.0881 57.9025 24.928 58.6803 24.6077C59.4581 24.2874 60.1519 23.8225 60.762 23.2122L62.2032 24.6535C61.41 25.4466 60.5103 26.0568 59.5038 26.4835C58.4516 26.926 57.3535 27.147 56.2097 27.147Z" fill="white"/>
<path d="M75.5425 22.0677H65.5457C65.6522 22.5102 65.8316 22.914 66.0833 23.2801C66.3349 23.6461 66.6323 23.9628 66.9755 24.2294C67.3186 24.4964 67.6996 24.7063 68.1192 24.8585C68.5385 25.0112 68.9771 25.0873 69.4346 25.0873C70.1055 25.0873 70.7308 24.935 71.3105 24.6298C71.8745 24.3249 72.3399 23.9207 72.7059 23.4173L74.3759 24.6298C73.8115 25.4076 73.1098 26.0177 72.2713 26.4599C71.402 26.9174 70.4562 27.1462 69.4346 27.1462C68.6111 27.1462 67.8333 26.9939 67.1013 26.6886C66.3692 26.3838 65.7133 25.9415 65.134 25.3618C64.5541 24.7823 64.112 24.123 63.8071 23.3831C63.5019 22.6434 63.3496 21.8618 63.3496 21.0383C63.3496 20.2146 63.5019 19.4368 63.8071 18.7048C64.112 17.9729 64.5541 17.3173 65.134 16.7375C65.7133 16.1581 66.3692 15.716 67.1013 15.4107C67.8333 15.1058 68.6111 14.9531 69.4346 14.9531C70.2581 14.9531 71.0395 15.1058 71.7794 15.4107C72.519 15.716 73.1784 16.1581 73.7582 16.7375C74.3376 17.3173 74.7798 17.9729 75.0851 18.7048C75.39 19.4368 75.5425 20.2146 75.5425 21.0383V22.0677ZM73.3464 20.0088C73.2243 19.582 73.0412 19.1853 72.7975 18.8192C72.5533 18.4533 72.2599 18.1369 71.9166 17.8699C71.5736 17.6032 71.1922 17.3934 70.7729 17.2407C70.3532 17.0885 69.9071 17.012 69.4346 17.012C68.9771 17.012 68.5385 17.0885 68.1192 17.2407C67.6996 17.3934 67.3186 17.6032 66.9755 17.8699C66.6323 18.1369 66.3349 18.4533 66.0833 18.8192C65.8316 19.1853 65.6522 19.582 65.5457 20.0088H73.3464Z" fill="white"/>
<path d="M83.0454 14.9535C84.0062 14.9078 84.9287 15.0833 85.8135 15.4797L84.9898 17.3555C84.4101 17.0964 83.8003 16.982 83.1598 17.0124C82.4886 17.0581 81.8708 17.2411 81.3068 17.5615C80.6663 17.9428 80.178 18.4386 79.8428 19.0484C79.4917 19.6738 79.3166 20.3294 79.3166 21.0157V27.1465H77.2578V14.9535H79.3166V16.4863C79.6062 16.2117 79.9264 15.983 80.2774 15.8C81.1467 15.2816 82.0693 14.9993 83.0454 14.9535Z" fill="white"/>
<path d="M98.8062 22.0677H88.8094C88.9158 22.5102 89.0953 22.914 89.347 23.2801C89.5986 23.6461 89.8959 23.9628 90.2392 24.2294C90.5822 24.4964 90.9632 24.7063 91.3829 24.8585C91.8022 25.0112 92.2407 25.0873 92.6983 25.0873C93.3692 25.0873 93.9944 24.935 94.5742 24.6298C95.1382 24.3249 95.6035 23.9207 95.9696 23.4173L97.6396 24.6298C97.0752 25.4076 96.3734 26.0177 95.535 26.4599C94.6657 26.9174 93.7199 27.1462 92.6983 27.1462C91.8748 27.1462 91.097 26.9939 90.365 26.6886C89.6329 26.3838 88.977 25.9415 88.3976 25.3618C87.8178 24.7823 87.3756 24.123 87.0707 23.3831C86.7655 22.6434 86.6133 21.8618 86.6133 21.0383C86.6133 20.2146 86.7655 19.4368 87.0707 18.7048C87.3756 17.9729 87.8178 17.3173 88.3976 16.7375C88.977 16.1581 89.6329 15.716 90.365 15.4107C91.097 15.1058 91.8748 14.9531 92.6983 14.9531C93.5218 14.9531 94.3032 15.1058 95.0431 15.4107C95.7826 15.716 96.4421 16.1581 97.0218 16.7375C97.6013 17.3173 98.0434 17.9729 98.3487 18.7048C98.6537 19.4368 98.8062 20.2146 98.8062 21.0383V22.0677ZM96.6101 20.0088C96.4879 19.582 96.3049 19.1853 96.0611 18.8192C95.817 18.4533 95.5235 18.1369 95.1803 17.8699C94.8372 17.6032 94.4558 17.3934 94.0366 17.2407C93.6169 17.0885 93.1708 17.012 92.6983 17.012C92.2407 17.012 91.8022 17.0885 91.3829 17.2407C90.9632 17.3934 90.5822 17.6032 90.2392 17.8699C89.8959 18.1369 89.5986 18.4533 89.347 18.8192C89.0953 19.1853 88.9158 19.582 88.8094 20.0088H96.6101Z" fill="white"/>
<path d="M111.913 18.4998C112.905 19.4913 113.4 20.6808 113.4 22.0685C113.4 23.4718 112.905 24.6688 111.913 25.66C111.425 26.1482 110.88 26.5179 110.278 26.7696C109.675 27.0211 109.031 27.147 108.345 27.147H99.9492V10.1729H107.201C107.811 10.1729 108.391 10.2912 108.939 10.5274C109.489 10.7641 109.961 11.0805 110.358 11.4768C110.754 11.8736 111.071 12.3425 111.307 12.8837C111.544 13.4253 111.662 14.001 111.662 14.6109C111.662 15.1753 111.566 15.7053 111.376 16.2007C111.185 16.6966 110.914 17.1426 110.564 17.539C111.082 17.7678 111.532 18.088 111.913 18.4998ZM102.008 12.2317V17.0128H107.201C107.536 17.0128 107.849 16.9521 108.139 16.8298C108.428 16.7079 108.68 16.5364 108.894 16.3151C109.107 16.0943 109.279 15.8386 109.408 15.5487C109.538 15.2593 109.603 14.9464 109.603 14.6109C109.603 14.2906 109.538 13.9857 109.408 13.6958C109.279 13.4062 109.107 13.1507 108.894 12.9294C108.68 12.7086 108.428 12.537 108.139 12.4148C107.849 12.2929 107.536 12.2317 107.201 12.2317H102.008ZM108.345 25.0881C108.756 25.0881 109.145 25.0081 109.511 24.8479C109.877 24.6878 110.194 24.4705 110.461 24.1959C110.727 23.9215 110.941 23.6011 111.101 23.2352C111.261 22.8691 111.341 22.4802 111.341 22.0685C111.341 21.6567 111.261 21.2678 111.101 20.9018C110.941 20.5357 110.727 20.2194 110.461 19.9524C110.194 19.6858 109.877 19.472 109.511 19.3119C109.145 19.1518 108.756 19.0717 108.345 19.0717H102.008V25.0881L108.345 25.0881Z" fill="white"/>
<path d="M120.901 14.9535C121.861 14.9078 122.784 15.0833 123.669 15.4798L122.845 17.3555C122.265 17.0964 121.656 16.982 121.015 17.0124C120.344 17.0581 119.726 17.2411 119.162 17.5615C118.522 17.9429 118.033 18.4386 117.698 19.0485C117.347 19.6739 117.172 20.3294 117.172 21.0157V27.1465H115.113V14.9535H117.172V16.4863C117.461 16.2118 117.782 15.983 118.133 15.8C119.002 15.2817 119.925 14.9993 120.901 14.9535Z" fill="white"/>
<path d="M136.666 22.0677H126.669C126.775 22.5102 126.955 22.914 127.206 23.2801C127.458 23.6461 127.755 23.9628 128.099 24.2294C128.442 24.4964 128.823 24.7063 129.242 24.8585C129.662 25.0112 130.1 25.0873 130.558 25.0873C131.229 25.0873 131.854 24.935 132.434 24.6298C132.998 24.3249 133.463 23.9207 133.829 23.4173L135.499 24.6298C134.935 25.4076 134.233 26.0177 133.394 26.4599C132.525 26.9174 131.579 27.1462 130.558 27.1462C129.734 27.1462 128.956 26.9939 128.224 26.6886C127.492 26.3838 126.836 25.9415 126.257 25.3618C125.677 24.7823 125.235 24.123 124.93 23.3831C124.625 22.6434 124.473 21.8618 124.473 21.0383C124.473 20.2146 124.625 19.4368 124.93 18.7048C125.235 17.9729 125.677 17.3173 126.257 16.7375C126.836 16.1581 127.492 15.716 128.224 15.4107C128.956 15.1058 129.734 14.9531 130.558 14.9531C131.381 14.9531 132.163 15.1058 132.902 15.4107C133.642 15.716 134.301 16.1581 134.881 16.7375C135.461 17.3173 135.903 17.9729 136.208 18.7048C136.513 19.4368 136.666 20.2146 136.666 21.0383L136.666 22.0677ZM134.469 20.0088C134.347 19.582 134.164 19.1853 133.921 18.8192C133.676 18.4533 133.383 18.1369 133.04 17.8699C132.697 17.6032 132.315 17.3934 131.896 17.2407C131.476 17.0885 131.03 17.012 130.558 17.012C130.1 17.012 129.662 17.0885 129.242 17.2407C128.823 17.3934 128.442 17.6032 128.099 17.8699C127.755 18.1369 127.458 18.4533 127.206 18.8192C126.955 19.1853 126.775 19.582 126.669 20.0088H134.469Z" fill="white"/>
<path d="M150.001 22.0677H140.005C140.111 22.5102 140.291 22.914 140.542 23.2801C140.794 23.6461 141.091 23.9628 141.434 24.2294C141.778 24.4964 142.159 24.7063 142.578 24.8585C142.997 25.0112 143.436 25.0873 143.894 25.0873C144.564 25.0873 145.19 24.935 145.769 24.6298C146.333 24.3249 146.799 23.9207 147.165 23.4173L148.835 24.6298C148.27 25.4076 147.569 26.0177 146.73 26.4599C145.861 26.9174 144.915 27.1462 143.894 27.1462C143.07 27.1462 142.292 26.9939 141.56 26.6886C140.828 26.3838 140.172 25.9415 139.593 25.3618C139.013 24.7823 138.571 24.123 138.266 23.3831C137.961 22.6434 137.809 21.8618 137.809 21.0383C137.809 20.2146 137.961 19.4368 138.266 18.7048C138.571 17.9729 139.013 17.3173 139.593 16.7375C140.172 16.1581 140.828 15.716 141.56 15.4107C142.292 15.1058 143.07 14.9531 143.894 14.9531C144.717 14.9531 145.498 15.1058 146.238 15.4107C146.978 15.716 147.637 16.1581 148.217 16.7375C148.797 17.3173 149.239 17.9729 149.544 18.7048C149.849 19.4368 150.001 20.2146 150.001 21.0383V22.0677ZM147.805 20.0088C147.683 19.582 147.5 19.1853 147.256 18.8192C147.012 18.4533 146.719 18.1369 146.376 17.8699C146.033 17.6032 145.651 17.3934 145.232 17.2407C144.812 17.0885 144.366 17.012 143.894 17.012C143.436 17.012 142.997 17.0885 142.578 17.2407C142.159 17.3934 141.778 17.6032 141.434 17.8699C141.091 18.1369 140.794 18.4533 140.542 18.8192C140.291 19.1853 140.111 19.582 140.005 20.0088H147.805Z" fill="white"/>
<path d="M18.1295 0.175142C17.8406 -0.0177397 17.4745 -0.0537874 17.1536 0.079335L8.08355 3.84067C6.06283 4.67866 4.78602 6.55803 4.75139 8.74538C4.72895 10.1669 5.23543 11.4746 6.1396 12.4638L3.1268 13.7132C1.23098 14.4994 0.0330683 16.2626 0.000675712 18.3147C-0.0318175 20.3668 1.10963 22.167 2.97966 23.0127L6.18464 24.4623C5.29354 25.414 4.77332 26.6749 4.7514 28.0595C4.71687 30.2468 5.93357 32.1656 7.92677 33.0671L17.1235 37.2265C17.2603 37.2883 17.4063 37.3189 17.5519 37.3189C17.749 37.3189 17.9451 37.263 18.1158 37.1528C18.4125 36.9614 18.5918 36.6323 18.5918 36.2791V1.03984C18.5918 0.692508 18.4184 0.368074 18.1295 0.175142ZM16.5122 34.6676L8.7838 31.1723C7.31842 30.5095 6.81416 29.1468 6.83081 28.0924C6.84492 27.1982 7.24315 26.0957 8.26938 25.4051L16.5122 29.1332V34.6676ZM16.5122 26.8507L10.8144 24.2738L16.5122 21.9109V26.8507ZM16.5122 19.6595L8.21754 23.0993L3.83669 21.1179C2.51855 20.5218 2.06496 19.296 2.07998 18.3476C2.09501 17.3992 2.58719 16.1883 3.92351 15.6342L8.18175 13.8683L16.5122 17.636V19.6595ZM16.5122 15.3535L10.8144 12.7765L16.5122 10.4136V15.3535ZM16.5122 8.16231L8.27674 11.5775C7.20012 10.8582 6.81624 9.70029 6.83081 8.77823C6.84746 7.7239 7.39458 6.37774 8.88026 5.76167L16.5122 2.59671L16.5122 8.16231Z" fill="url(#paint0_linear_377_897)"/>
<path d="M36.8655 13.7132L33.8527 12.4638C34.7569 11.4746 35.2633 10.1669 35.2409 8.7454C35.2063 6.55805 33.9295 4.67868 31.9087 3.84069L22.8386 0.0793534C22.5177 -0.0536684 22.1514 -0.017671 21.8627 0.17516C21.5738 0.368092 21.4004 0.692526 21.4004 1.03985V36.2791C21.4004 36.6323 21.5797 36.9613 21.8764 37.1528C22.0471 37.263 22.2432 37.3189 22.4403 37.3189C22.5858 37.3189 22.7319 37.2884 22.8687 37.2265L32.0655 33.0671C34.0587 32.1656 35.2754 30.2468 35.2409 28.0595C35.219 26.6749 34.6988 25.4141 33.8077 24.4623L37.0126 23.0127C38.8827 22.167 40.0241 20.3668 39.9916 18.3147C39.9592 16.2626 38.7613 14.4994 36.8655 13.7132ZM23.48 2.59673L31.112 5.76169C32.5977 6.37776 33.1448 7.72392 33.1615 8.77825C33.1761 9.70031 32.7921 10.8582 31.7156 11.5775L23.48 8.16232V2.59673ZM23.48 10.4137L29.1779 12.7766L23.48 15.3536V10.4137ZM23.48 21.9109L29.1779 24.2738L23.48 26.8507V21.9109ZM31.2085 31.1723L23.48 34.6676V29.1332L31.7229 25.4051C32.7492 26.0957 33.1474 27.1982 33.1615 28.0924C33.1781 29.1468 32.6739 30.5096 31.2085 31.1723ZM36.1556 21.1179L31.7747 23.0993L23.48 19.6595V17.636L31.8106 13.8683L36.0688 15.6342C37.4051 16.1883 37.8973 17.3992 37.9123 18.3476C37.9273 19.296 37.4737 20.5218 36.1556 21.1179Z" fill="#FCFCFC"/>
<path d="M36.8655 13.7132L33.8527 12.4638C34.7569 11.4746 35.2633 10.1669 35.2409 8.7454C35.2063 6.55805 33.9295 4.67868 31.9087 3.84069L22.8386 0.0793534C22.5177 -0.0536684 22.1514 -0.017671 21.8627 0.17516C21.5738 0.368092 21.4004 0.692526 21.4004 1.03985V36.2791C21.4004 36.6323 21.5797 36.9613 21.8764 37.1528C22.0471 37.263 22.2432 37.3189 22.4403 37.3189C22.5858 37.3189 22.7319 37.2884 22.8687 37.2265L32.0655 33.0671C34.0587 32.1656 35.2754 30.2468 35.2409 28.0595C35.219 26.6749 34.6988 25.4141 33.8077 24.4623L37.0126 23.0127C38.8827 22.167 40.0241 20.3668 39.9916 18.3147C39.9592 16.2626 38.7613 14.4994 36.8655 13.7132ZM23.48 2.59673L31.112 5.76169C32.5977 6.37776 33.1448 7.72392 33.1615 8.77825C33.1761 9.70031 32.7921 10.8582 31.7156 11.5775L23.48 8.16232V2.59673ZM23.48 10.4137L29.1779 12.7766L23.48 15.3536V10.4137ZM23.48 21.9109L29.1779 24.2738L23.48 26.8507V21.9109ZM31.2085 31.1723L23.48 34.6676V29.1332L31.7229 25.4051C32.7492 26.0957 33.1474 27.1982 33.1615 28.0924C33.1781 29.1468 32.6739 30.5096 31.2085 31.1723ZM36.1556 21.1179L31.7747 23.0993L23.48 19.6595V17.636L31.8106 13.8683L36.0688 15.6342C37.4051 16.1883 37.8973 17.3992 37.9123 18.3476C37.9273 19.296 37.4737 20.5218 36.1556 21.1179Z" fill="url(#paint1_linear_377_897)"/>
</g>
<defs>
<linearGradient id="paint0_linear_377_897" x1="9.2959" y1="-5.70991e-05" x2="41.7448" y2="40.9506" gradientUnits="userSpaceOnUse">
<stop stop-color="#38FAB6"/>
<stop offset="1" stop-color="#04A0FC"/>
</linearGradient>
<linearGradient id="paint1_linear_377_897" x1="30.6963" y1="1.8481e-05" x2="36.5652" y2="5.6803" gradientUnits="userSpaceOnUse">
<stop stop-color="#38FAB6"/>
<stop offset="1" stop-color="#04A0FC"/>
</linearGradient>
<clipPath id="clip0_377_897">
<rect width="150" height="37.3189" fill="white"/>
</clipPath>
</defs>
</svg>
