<svg width="12" height="12" viewBox="0 0 12 12" fill="none" xmlns="http://www.w3.org/2000/svg">
<path d="M6 10H10.5" stroke="#C27AFF" stroke-linecap="round" stroke-linejoin="round"/>
<path d="M8.1875 1.81099C8.38654 1.61194 8.65651 1.50012 8.938 1.50012C9.21949 1.50012 9.48946 1.61194 9.6885 1.81099C9.88755 2.01003 9.99937 2.28 9.99937 2.56149C9.99937 2.84298 9.88755 3.11294 9.6885 3.31199L3.6835 9.31749C3.56455 9.43644 3.41751 9.52346 3.256 9.57049L1.82 9.98949C1.77698 10.002 1.73137 10.0028 1.68795 9.99167C1.64454 9.98055 1.60491 9.95796 1.57322 9.92627C1.54153 9.89458 1.51894 9.85495 1.50782 9.81153C1.4967 9.76812 1.49745 9.72251 1.51 9.67949L1.929 8.24349C1.97611 8.08216 2.06312 7.9353 2.182 7.81649L8.1875 1.81099Z" stroke="#C27AFF" stroke-linecap="round" stroke-linejoin="round"/>
</svg>
